mastitorrents.com
 
http://mastitorrents.com/forums/index.php
 
http://thepiratebay.org/user/HDvideos/0/7

The Dirty Picture (2011) Hindi 1CD PreDVD Rip XviD Mp3 Happy[TDT]@Mastitorrents

Format : AVI
Format/Info : Audio Video Interleave
File size : 705 MiB
Duration : 2h 14mn
Overall bit rate : 731 Kbps

Video
ID : 0
Format : MPEG-4 Visual
Format profile : Advanced Simple@L5
Format settings, BVOP : 1
Format settings, QPel : No
Format settings, GMC : No warppoints
Format settings, Matrix : Default (H.263)
Muxing mode : Packed bitstream
Codec ID : XVID
Codec ID/Hint : XviD
Duration : 2h 14mn
Bit rate : 644 Kbps
Width : 608 pixels
Height : 240 pixels
Display aspect ratio : 2.533
Frame rate : 29.970 fps
Color space : YUV
Chroma subsampling : 4:2:0
Bit depth : 8 bits
Scan type : Progressive
Compression mode : Lossy
Bits/(Pixel*Frame) : 0.147
Stream size : 621 MiB (88%)
Writing library : XviD 1.2.1 (UTC 2008-12-04)

Audio
ID : 1
Format : MPEG Audio
Format version : Version 1
Format profile : Layer 3
Mode : Joint stereo
Mode extension : MS Stereo
Codec ID : 55
Codec ID/Hint : MP3
Duration : 2h 14mn
Bit rate mode : Constant
Bit rate : 80.0 Kbps
Channel(s) : 2 channels
Sampling rate : 32.0 KHz
Compression mode : Lossy
Stream size : 77.2 MiB (11%)
Alignment : Aligned on interleaves
Interleave, duration : 133 ms (4.00 video frames)
Interleave, preload duration : 216 ms
Title : VTS_01_1 T80 2_0ch 192Kbps DELAY 0ms
Writing library : LAME3.98r

Thnxx & Credit To Team TNT


File size : 705MiB
Duration : 02h 14mn xx
Width : 608 pixels
Height : 240 pixels
Aspect Ratio : 2.53:1
Audio Bit rate : Mp3 - 80 Kbps CBR | 2 Channel
Video Bit Rate : 644 Kbps
Frame Per Second : 29.970 fps
Subtitles : None
Source : TeamTNT